STARTFONT 2.1
FONT -FontForge-Fredoka One-Book-R-Normal--11-110-72-72-P-64-ISO10646-1
SIZE 11 72 72
FONTBOUNDINGBOX 14 14 -1 -3
COMMENT "Generated by fontforge, http://fontforge.sourceforge.net"
COMMENT "Copyright (c) 2011 Milena B Brandao (milenabbrandao@gmail.com), with Reserved Font Name "Fredoka""
STARTPROPERTIES 39
FOUNDRY "FontForge"
FAMILY_NAME "Fredoka One"
WEIGHT_NAME "Book"
SLANT "R"
SETWIDTH_NAME "Normal"
ADD_STYLE_NAME ""
PIXEL_SIZE 11
POINT_SIZE 110
RESOLUTION_X 72
RESOLUTION_Y 72
SPACING "P"
AVERAGE_WIDTH 64
CHARSET_REGISTRY "ISO10646"
CHARSET_ENCODING "1"
FONTNAME_REGISTRY ""
CHARSET_COLLECTIONS "ISO10646-1"
FONT_NAME "FredokaOne-Regular"
FACE_NAME "Fredoka One"
COPYRIGHT "Copyright (c) 2011 Milena B Brandao (milenabbrandao@gmail.com), with Reserved Font Name "Fredoka""
FONT_VERSION "1.001"
FONT_ASCENT 9
FONT_DESCENT 2
UNDERLINE_POSITION -1
UNDERLINE_THICKNESS 1
X_HEIGHT 5
CAP_HEIGHT 7
RAW_ASCENT 800
RAW_DESCENT 200
NORM_SPACE 3
RELATIVE_WEIGHT 40
RELATIVE_SETWIDTH 50
SUPERSCRIPT_X 0
SUPERSCRIPT_Y 5
SUPERSCRIPT_SIZE 7
SUBSCRIPT_X 0
SUBSCRIPT_Y 1
SUBSCRIPT_SIZE 7
AVG_LOWERCASE_WIDTH 64
AVG_UPPERCASE_WIDTH 76
ENDPROPERTIES
CHARS 235
STARTCHAR space
ENCODING 32
SWIDTH 253 0
DWIDTH 3 0
BBX 1 1 0 0
BITMAP
00
ENDCHAR
STARTCHAR exclam
ENCODING 33
SWIDTH 267 0
DWIDTH 3 0
BBX 3 8 0 0
BITMAP
40
C0
C0
C0
40
00
E0
C0
ENDCHAR
STARTCHAR quotedbl
ENCODING 34
SWIDTH 429 0
DWIDTH 5 0
BBX 4 4 0 4
BITMAP
D0
D0
D0
50
ENDCHAR
STARTCHAR numbersign
ENCODING 35
SWIDTH 749 0
DWIDTH 8 0
BBX 8 8 0 0
BITMAP
32
36
7F
26
26
FF
64
6C
ENDCHAR
STARTCHAR dollar
ENCODING 36
SWIDTH 475 0
DWIDTH 5 0
BBX 5 10 0 -1
BITMAP
20
20
78
D0
60
38
58
F8
20
20
ENDCHAR
STARTCHAR percent
ENCODING 37
SWIDTH 838 0
DWIDTH 9 0
BBX 9 9 0 0
BITMAP
0200
7200
D400
D400
7800
0B00
1480
1580
2300
ENDCHAR
STARTCHAR ampersand
ENCODING 38
SWIDTH 748 0
DWIDTH 8 0
BBX 8 8 0 0
BITMAP
7C
6C
78
30
72
DE
FF
7F
ENDCHAR
STARTCHAR quotesingle
ENCODING 39
SWIDTH 208 0
DWIDTH 2 0
BBX 2 4 0 4
BITMAP
C0
C0
C0
40
ENDCHAR
STARTCHAR parenleft
ENCODING 40
SWIDTH 384 0
DWIDTH 4 0
BBX 4 12 0 -3
BITMAP
10
30
60
40
C0
C0
C0
C0
40
60
30
10
ENDCHAR
STARTCHAR parenright
ENCODING 41
SWIDTH 384 0
DWIDTH 4 0
BBX 4 12 0 -3
BITMAP
80
E0
20
30
30
30
30
30
30
20
E0
80
ENDCHAR
STARTCHAR asterisk
ENCODING 42
SWIDTH 503 0
DWIDTH 6 0
BBX 5 5 0 3
BITMAP
30
F8
F8
78
50
ENDCHAR
STARTCHAR plus
ENCODING 43
SWIDTH 527 0
DWIDTH 6 0
BBX 6 6 0 0
BITMAP
30
30
FC
F8
30
30
ENDCHAR
STARTCHAR comma
ENCODING 44
SWIDTH 238 0
DWIDTH 3 0
BBX 2 4 0 -2
BITMAP
C0
C0
40
80
ENDCHAR
STARTCHAR hyphen
ENCODING 45
SWIDTH 433 0
DWIDTH 5 0
BBX 4 1 0 2
BITMAP
F0
ENDCHAR
STARTCHAR period
ENCODING 46
SWIDTH 237 0
DWIDTH 3 0
BBX 2 2 0 0
BITMAP
C0
C0
ENDCHAR
STARTCHAR slash
ENCODING 47
SWIDTH 526 0
DWIDTH 6 0
BBX 6 10 0 -1
BITMAP
08
0C
18
18
30
30
60
60
C0
40
ENDCHAR
STARTCHAR zero
ENCODING 48
SWIDTH 608 0
DWIDTH 7 0
BBX 6 8 0 0
BITMAP
78
7C
CC
CC
CC
CC
7C
78
ENDCHAR
STARTCHAR one
ENCODING 49
SWIDTH 407 0
DWIDTH 4 0
BBX 4 8 0 0
BITMAP
30
70
F0
70
30
30
30
30
ENDCHAR
STARTCHAR two
ENCODING 50
SWIDTH 609 0
DWIDTH 7 0
BBX 7 8 0 0
BITMAP
78
7C
CC
CC
1C
78
FC
FE
ENDCHAR
STARTCHAR three
ENCODING 51
SWIDTH 608 0
DWIDTH 7 0
BBX 6 8 0 0
BITMAP
78
7C
4C
3C
1C
CC
FC
78
ENDCHAR
STARTCHAR four
ENCODING 52
SWIDTH 592 0
DWIDTH 7 0
BBX 6 8 0 0
BITMAP
6C
6C
6C
CC
FC
FC
0C
0C
ENDCHAR
STARTCHAR five
ENCODING 53
SWIDTH 530 0
DWIDTH 6 0
BBX 6 8 0 0
BITMAP
78
78
40
F8
F8
0C
F8
78
ENDCHAR
STARTCHAR six
ENCODING 54
SWIDTH 560 0
DWIDTH 6 0
BBX 6 8 0 0
BITMAP
3C
7C
60
F8
FC
CC
7C
78
ENDCHAR
STARTCHAR seven
ENCODING 55
SWIDTH 561 0
DWIDTH 6 0
BBX 6 8 0 0
BITMAP
FC
FC
1C
18
30
30
60
60
ENDCHAR
STARTCHAR eight
ENCODING 56
SWIDTH 582 0
DWIDTH 6 0
BBX 6 8 0 0
BITMAP
78
7C
6C
78
7C
CC
FC
78
ENDCHAR
STARTCHAR nine
ENCODING 57
SWIDTH 560 0
DWIDTH 6 0
BBX 6 8 0 0
BITMAP
78
FC
CC
7C
3C
18
78
F0
ENDCHAR
STARTCHAR colon
ENCODING 58
SWIDTH 238 0
DWIDTH 3 0
BBX 2 6 0 0
BITMAP
40
C0
40
00
C0
C0
ENDCHAR
STARTCHAR semicolon
ENCODING 59
SWIDTH 237 0
DWIDTH 3 0
BBX 2 8 0 -2
BITMAP
40
C0
40
00
C0
C0
40
80
ENDCHAR
STARTCHAR less
ENCODING 60
SWIDTH 627 0
DWIDTH 7 0
BBX 7 8 0 0
BITMAP
04
0E
3C
70
E0
78
1E
04
ENDCHAR
STARTCHAR equal
ENCODING 61
SWIDTH 478 0
DWIDTH 5 0
BBX 5 4 0 0
BITMAP
F8
00
F8
78
ENDCHAR
STARTCHAR greater
ENCODING 62
SWIDTH 627 0
DWIDTH 7 0
BBX 7 8 0 0
BITMAP
40
E0
78
1C
0E
38
F0
C0
ENDCHAR
STARTCHAR question
ENCODING 63
SWIDTH 512 0
DWIDTH 6 0
BBX 5 8 0 0
BITMAP
78
F8
48
38
30
00
30
30
ENDCHAR
STARTCHAR at
ENCODING 64
SWIDTH 908 0
DWIDTH 10 0
BBX 10 8 0 -1
BITMAP
3F00
6180
5E80
D6C0
D6C0
DE80
6780
3800
ENDCHAR
STARTCHAR A
ENCODING 65
SWIDTH 765 0
DWIDTH 8 0
BBX 8 8 0 0
BITMAP
18
1C
3C
3E
76
7F
E3
C3
ENDCHAR
STARTCHAR B
ENCODING 66
SWIDTH 646 0
DWIDTH 7 0
BBX 7 8 0 0
BITMAP
FC
FC
C6
DC
CE
C6
FE
FC
ENDCHAR
STARTCHAR C
ENCODING 67
SWIDTH 679 0
DWIDTH 7 0
BBX 7 8 0 0
BITMAP
3E
7E
60
C0
C0
60
7E
3E
ENDCHAR
STARTCHAR D
ENCODING 68
SWIDTH 704 0
DWIDTH 8 0
BBX 7 8 0 0
BITMAP
F8
FE
C6
C6
C6
C6
FE
F8
ENDCHAR
STARTCHAR E
ENCODING 69
SWIDTH 638 0
DWIDTH 7 0
BBX 7 8 0 0
BITMAP
FE
FE
C0
FC
F8
C0
FE
FE
ENDCHAR
STARTCHAR F
ENCODING 70
SWIDTH 637 0
DWIDTH 7 0
BBX 7 8 0 0
BITMAP
FE
FE
C0
FC
F8
C0
C0
C0
ENDCHAR
STARTCHAR G
ENCODING 71
SWIDTH 714 0
DWIDTH 8 0
BBX 7 8 0 0
BITMAP
3E
7E
60
CE
CE
66
7E
3E
ENDCHAR
STARTCHAR H
ENCODING 72
SWIDTH 699 0
DWIDTH 8 0
BBX 7 8 0 0
BITMAP
C6
C6
C6
FE
FE
C6
C6
C6
ENDCHAR
STARTCHAR I
ENCODING 73
SWIDTH 257 0
DWIDTH 3 0
BBX 2 8 0 0
BITMAP
C0
C0
C0
C0
C0
C0
C0
C0
ENDCHAR
STARTCHAR J
ENCODING 74
SWIDTH 549 0
DWIDTH 6 0
BBX 6 8 0 0
BITMAP
0C
0C
0C
0C
0C
4C
F8
70
ENDCHAR
STARTCHAR K
ENCODING 75
SWIDTH 639 0
DWIDTH 7 0
BBX 7 8 0 0
BITMAP
C6
CC
D8
F0
F0
D8
CC
C6
ENDCHAR
STARTCHAR L
ENCODING 76
SWIDTH 587 0
DWIDTH 6 0
BBX 6 8 0 0
BITMAP
C0
C0
C0
C0
C0
C0
FC
FC
ENDCHAR
STARTCHAR M
ENCODING 77
SWIDTH 870 0
DWIDTH 10 0
BBX 9 8 0 0
BITMAP
C180
E380
F380
DF80
DD80
CD80
C180
C180
ENDCHAR
STARTCHAR N
ENCODING 78
SWIDTH 720 0
DWIDTH 8 0
BBX 7 8 0 0
BITMAP
C2
E2
F2
FA
DA
CE
C6
C6
ENDCHAR
STARTCHAR O
ENCODING 79
SWIDTH 775 0
DWIDTH 9 0
BBX 8 8 0 0
BITMAP
3C
7E
63
C3
C3
63
7E
3C
ENDCHAR
STARTCHAR P
ENCODING 80
SWIDTH 632 0
DWIDTH 7 0
BBX 7 8 0 0
BITMAP
F8
FC
C6
C6
FC
F8
C0
C0
ENDCHAR
STARTCHAR Q
ENCODING 81
SWIDTH 830 0
DWIDTH 9 0
BBX 9 8 0 0
BITMAP
3C00
7E00
6300
C300
C300
6300
7F80
3D80
ENDCHAR
STARTCHAR R
ENCODING 82
SWIDTH 631 0
DWIDTH 7 0
BBX 7 8 0 0
BITMAP
F8
FC
C6
C6
FC
FC
CE
C6
ENDCHAR
STARTCHAR S
ENCODING 83
SWIDTH 583 0
DWIDTH 6 0
BBX 6 8 0 0
BITMAP
78
7C
C0
78
3C
4C
FC
78
ENDCHAR
STARTCHAR T
ENCODING 84
SWIDTH 731 0
DWIDTH 8 0
BBX 8 8 0 0
BITMAP
FF
7E
18
18
18
18
18
18
ENDCHAR
STARTCHAR U
ENCODING 85
SWIDTH 726 0
DWIDTH 8 0
BBX 8 8 0 0
BITMAP
C3
C3
C3
C3
C3
66
7E
3C
ENDCHAR
STARTCHAR V
ENCODING 86
SWIDTH 783 0
DWIDTH 9 0
BBX 8 8 0 0
BITMAP
C1
E3
63
66
36
3C
1C
18
ENDCHAR
STARTCHAR W
ENCODING 87
SWIDTH 999 0
DWIDTH 11 0
BBX 11 8 0 0
BITMAP
C460
CE60
6EC0
6EC0
7BC0
3B80
3B80
3180
ENDCHAR
STARTCHAR X
ENCODING 88
SWIDTH 741 0
DWIDTH 8 0
BBX 8 8 0 0
BITMAP
C3
67
7E
3C
3C
7E
E7
C3
ENDCHAR
STARTCHAR Y
ENCODING 89
SWIDTH 686 0
DWIDTH 8 0
BBX 7 8 0 0
BITMAP
C6
E6
6C
3C
38
18
18
18
ENDCHAR
STARTCHAR Z
ENCODING 90
SWIDTH 643 0
DWIDTH 7 0
BBX 7 8 0 0
BITMAP
FE
FC
1C
18
30
70
FE
FE
ENDCHAR
STARTCHAR bracketleft
ENCODING 91
SWIDTH 348 0
DWIDTH 4 0
BBX 4 11 0 -2
BITMAP
60
F0
C0
C0
C0
C0
C0
C0
C0
C0
F0
ENDCHAR
STARTCHAR backslash
ENCODING 92
SWIDTH 528 0
DWIDTH 6 0
BBX 6 10 0 -1
BITMAP
40
C0
60
60
30
30
18
18
0C
08
ENDCHAR
STARTCHAR bracketright
ENCODING 93
SWIDTH 348 0
DWIDTH 4 0
BBX 3 11 0 -2
BITMAP
60
E0
20
20
20
20
20
20
20
20
E0
ENDCHAR
STARTCHAR asciicircum
ENCODING 94
SWIDTH 526 0
DWIDTH 6 0
BBX 5 3 0 3
BITMAP
30
78
D8
ENDCHAR
STARTCHAR underscore
ENCODING 95
SWIDTH 826 0
DWIDTH 9 0
BBX 9 2 0 -3
BITMAP
FF80
7F00
ENDCHAR
STARTCHAR grave
ENCODING 96
SWIDTH 482 0
DWIDTH 5 0
BBX 3 3 1 6
BITMAP
80
E0
20
ENDCHAR
STARTCHAR a
ENCODING 97
SWIDTH 596 0
DWIDTH 7 0
BBX 6 6 0 0
BITMAP
3C
7C
CC
CC
7C
3C
ENDCHAR
STARTCHAR b
ENCODING 98
SWIDTH 592 0
DWIDTH 7 0
BBX 6 9 0 0
BITMAP
40
C0
C0
D8
FC
EC
CC
FC
F8
ENDCHAR
STARTCHAR c
ENCODING 99
SWIDTH 517 0
DWIDTH 6 0
BBX 5 6 0 0
BITMAP
38
78
C8
C0
78
38
ENDCHAR
STARTCHAR d
ENCODING 100
SWIDTH 598 0
DWIDTH 7 0
BBX 6 9 0 0
BITMAP
04
0C
0C
3C
7C
CC
CC
7C
3C
ENDCHAR
STARTCHAR e
ENCODING 101
SWIDTH 573 0
DWIDTH 6 0
BBX 6 6 0 0
BITMAP
38
7C
CC
FC
7C
7C
ENDCHAR
STARTCHAR f
ENCODING 102
SWIDTH 450 0
DWIDTH 5 0
BBX 5 9 0 0
BITMAP
10
38
60
F8
F8
60
60
60
60
ENDCHAR
STARTCHAR g
ENCODING 103
SWIDTH 585 0
DWIDTH 6 0
BBX 6 9 0 -3
BITMAP
3C
7C
CC
CC
7C
3C
4C
78
10
ENDCHAR
STARTCHAR h
ENCODING 104
SWIDTH 605 0
DWIDTH 7 0
BBX 6 9 0 0
BITMAP
40
C0
C0
D8
FC
EC
CC
CC
CC
ENDCHAR
STARTCHAR i
ENCODING 105
SWIDTH 255 0
DWIDTH 3 0
BBX 2 9 0 0
BITMAP
40
C0
00
40
C0
C0
C0
C0
C0
ENDCHAR
STARTCHAR j
ENCODING 106
SWIDTH 252 0
DWIDTH 3 0
BBX 3 10 -1 -2
BITMAP
60
00
20
60
60
60
60
60
60
E0
ENDCHAR
STARTCHAR k
ENCODING 107
SWIDTH 536 0
DWIDTH 6 0
BBX 6 9 0 0
BITMAP
40
C0
C0
C8
D8
F8
F0
DC
C8
ENDCHAR
STARTCHAR l
ENCODING 108
SWIDTH 327 0
DWIDTH 4 0
BBX 3 9 0 0
BITMAP
40
C0
C0
C0
C0
C0
C0
E0
60
ENDCHAR
STARTCHAR m
ENCODING 109
SWIDTH 851 0
DWIDTH 9 0
BBX 9 6 0 0
BITMAP
5B00
FF80
CD80
CD80
CD80
CD80
ENDCHAR
STARTCHAR n
ENCODING 110
SWIDTH 606 0
DWIDTH 7 0
BBX 6 6 0 0
BITMAP
58
FC
EC
CC
CC
CC
ENDCHAR
STARTCHAR o
ENCODING 111
SWIDTH 600 0
DWIDTH 7 0
BBX 6 6 0 0
BITMAP
38
7C
CC
CC
7C
78
ENDCHAR
STARTCHAR p
ENCODING 112
SWIDTH 582 0
DWIDTH 6 0
BBX 6 9 0 -3
BITMAP
58
FC
EC
CC
FC
F8
C0
C0
40
ENDCHAR
STARTCHAR q
ENCODING 113
SWIDTH 582 0
DWIDTH 6 0
BBX 6 9 0 -3
BITMAP
3C
7C
CC
CC
7C
3C
0C
0C
04
ENDCHAR
STARTCHAR r
ENCODING 114
SWIDTH 457 0
DWIDTH 5 0
BBX 5 6 0 0
BITMAP
58
F8
C0
C0
C0
C0
ENDCHAR
STARTCHAR s
ENCODING 115
SWIDTH 489 0
DWIDTH 5 0
BBX 5 6 0 0
BITMAP
78
F8
70
78
D8
78
ENDCHAR
STARTCHAR t
ENCODING 116
SWIDTH 449 0
DWIDTH 5 0
BBX 5 8 0 0
BITMAP
60
60
F8
F8
60
60
70
30
ENDCHAR
STARTCHAR u
ENCODING 117
SWIDTH 606 0
DWIDTH 7 0
BBX 6 6 0 0
BITMAP
4C
CC
CC
CC
7C
3C
ENDCHAR
STARTCHAR v
ENCODING 118
SWIDTH 638 0
DWIDTH 7 0
BBX 7 6 0 0
BITMAP
C6
C6
6C
7C
38
10
ENDCHAR
STARTCHAR w
ENCODING 119
SWIDTH 793 0
DWIDTH 9 0
BBX 9 6 0 0
BITMAP
C900
DF80
7F00
7F00
3600
3600
ENDCHAR
STARTCHAR x
ENCODING 120
SWIDTH 567 0
DWIDTH 6 0
BBX 6 6 0 0
BITMAP
4C
FC
78
78
FC
CC
ENDCHAR
STARTCHAR y
ENCODING 121
SWIDTH 604 0
DWIDTH 7 0
BBX 6 9 0 -3
BITMAP
C4
EC
6C
38
38
38
30
30
20
ENDCHAR
STARTCHAR z
ENCODING 122
SWIDTH 586 0
DWIDTH 6 0
BBX 6 6 0 0
BITMAP
7C
7C
18
70
FC
FC
ENDCHAR
STARTCHAR braceleft
ENCODING 123
SWIDTH 381 0
DWIDTH 4 0
BBX 4 11 0 -2
BITMAP
10
30
60
60
60
E0
E0
60
60
60
30
ENDCHAR
STARTCHAR bar
ENCODING 124
SWIDTH 217 0
DWIDTH 2 0
BBX 2 12 0 -3
BITMAP
40
C0
C0
C0
C0
C0
C0
C0
C0
C0
C0
40
ENDCHAR
STARTCHAR braceright
ENCODING 125
SWIDTH 381 0
DWIDTH 4 0
BBX 4 11 0 -2
BITMAP
80
E0
60
60
60
70
70
60
60
60
E0
ENDCHAR
STARTCHAR asciitilde
ENCODING 126
SWIDTH 651 0
DWIDTH 7 0
BBX 5 2 1 2
BITMAP
F8
F8
ENDCHAR
STARTCHAR exclamdown
ENCODING 161
SWIDTH 268 0
DWIDTH 3 0
BBX 3 9 0 -3
BITMAP
40
E0
00
40
C0
C0
C0
C0
40
ENDCHAR
STARTCHAR cent
ENCODING 162
SWIDTH 434 0
DWIDTH 5 0
BBX 5 8 0 -1
BITMAP
20
20
70
C0
D0
78
20
20
ENDCHAR
STARTCHAR sterling
ENCODING 163
SWIDTH 675 0
DWIDTH 7 0
BBX 7 8 0 0
BITMAP
3C
7E
60
F8
F8
20
7E
7E
ENDCHAR
STARTCHAR currency
ENCODING 164
SWIDTH 677 0
DWIDTH 7 0
BBX 7 8 0 0
BITMAP
E6
7C
66
C6
46
7E
7E
C2
ENDCHAR
STARTCHAR yen
ENCODING 165
SWIDTH 677 0
DWIDTH 7 0
BBX 7 8 0 0
BITMAP
C6
E6
6C
3C
7C
18
7C
18
ENDCHAR
STARTCHAR brokenbar
ENCODING 166
SWIDTH 215 0
DWIDTH 2 0
BBX 2 11 0 -2
BITMAP
40
C0
C0
C0
C0
00
40
C0
C0
C0
C0
ENDCHAR
STARTCHAR section
ENCODING 167
SWIDTH 560 0
DWIDTH 6 0
BBX 6 10 0 -2
BITMAP
78
C8
E0
78
CC
EC
78
0C
CC
78
ENDCHAR
STARTCHAR dieresis
ENCODING 168
SWIDTH 489 0
DWIDTH 5 0
BBX 5 2 0 7
BITMAP
48
D8
ENDCHAR
STARTCHAR copyright
ENCODING 169
SWIDTH 711 0
DWIDTH 8 0
BBX 8 7 0 1
BITMAP
7C
5A
AA
A1
BA
4A
3C
ENDCHAR
STARTCHAR ordfeminine
ENCODING 170
SWIDTH 445 0
DWIDTH 5 0
BBX 4 4 0 4
BITMAP
70
F0
D0
70
ENDCHAR
STARTCHAR guillemotleft
ENCODING 171
SWIDTH 668 0
DWIDTH 7 0
BBX 7 6 0 0
BITMAP
22
76
EC
FC
76
32
ENDCHAR
STARTCHAR logicalnot
ENCODING 172
SWIDTH 526 0
DWIDTH 6 0
BBX 6 4 0 1
BITMAP
FC
FC
0C
08
ENDCHAR
STARTCHAR registered
ENCODING 174
SWIDTH 711 0
DWIDTH 8 0
BBX 8 7 0 1
BITMAP
7C
7A
BE
B9
BE
42
3C
ENDCHAR
STARTCHAR degree
ENCODING 176
SWIDTH 407 0
DWIDTH 4 0
BBX 4 4 0 4
BITMAP
70
D0
70
20
ENDCHAR
STARTCHAR plusminus
ENCODING 177
SWIDTH 505 0
DWIDTH 6 0
BBX 5 6 0 0
BITMAP
30
F8
F8
30
70
F8
ENDCHAR
STARTCHAR twosuperior
ENCODING 178
SWIDTH 455 0
DWIDTH 5 0
BBX 5 6 0 2
BITMAP
70
D8
D8
70
F8
78
ENDCHAR
STARTCHAR threesuperior
ENCODING 179
SWIDTH 457 0
DWIDTH 5 0
BBX 5 6 0 2
BITMAP
70
58
30
D8
F8
70
ENDCHAR
STARTCHAR acute
ENCODING 180
SWIDTH 605 0
DWIDTH 7 0
BBX 3 3 2 6
BITMAP
20
E0
80
ENDCHAR
STARTCHAR mu
ENCODING 181
SWIDTH 601 0
DWIDTH 7 0
BBX 6 8 0 -2
BITMAP
4C
CC
CC
CC
FC
FC
C0
C0
ENDCHAR
STARTCHAR paragraph
ENCODING 182
SWIDTH 614 0
DWIDTH 7 0
BBX 6 10 0 -3
BITMAP
7C
F4
F4
74
34
34
34
34
34
14
ENDCHAR
STARTCHAR periodcentered
ENCODING 183
SWIDTH 237 0
DWIDTH 3 0
BBX 2 2 0 2
BITMAP
C0
40
ENDCHAR
STARTCHAR cedilla
ENCODING 184
SWIDTH 559 0
DWIDTH 6 0
BBX 2 2 2 -2
BITMAP
C0
C0
ENDCHAR
STARTCHAR onesuperior
ENCODING 185
SWIDTH 321 0
DWIDTH 4 0
BBX 3 6 0 2
BITMAP
60
E0
60
60
60
20
ENDCHAR
STARTCHAR ordmasculine
ENCODING 186
SWIDTH 439 0
DWIDTH 5 0
BBX 5 4 0 4
BITMAP
70
F0
D8
70
ENDCHAR
STARTCHAR guillemotright
ENCODING 187
SWIDTH 669 0
DWIDTH 7 0
BBX 7 6 0 0
BITMAP
48
FC
76
36
6C
D8
ENDCHAR
STARTCHAR onequarter
ENCODING 188
SWIDTH 786 0
DWIDTH 9 0
BBX 7 9 1 0
BITMAP
0C
C8
C8
50
5A
2A
2E
4E
C2
ENDCHAR
STARTCHAR onehalf
ENCODING 189
SWIDTH 804 0
DWIDTH 9 0
BBX 7 9 1 0
BITMAP
0C
C8
C8
50
54
2E
2A
4C
CE
ENDCHAR
STARTCHAR threequarters
ENCODING 190
SWIDTH 842 0
DWIDTH 9 0
BBX 8 9 1 0
BITMAP
04
E4
68
A8
F6
17
2F
2F
43
ENDCHAR
STARTCHAR questiondown
ENCODING 191
SWIDTH 511 0
DWIDTH 6 0
BBX 5 8 0 -2
BITMAP
30
30
00
30
70
C0
D8
78
ENDCHAR
STARTCHAR Agrave
ENCODING 192
SWIDTH 765 0
DWIDTH 8 0
BBX 8 11 0 0
BITMAP
20
3C
08
18
1C
3C
3E
76
7F
E3
C3
ENDCHAR
STARTCHAR Aacute
ENCODING 193
SWIDTH 765 0
DWIDTH 8 0
BBX 8 11 0 0
BITMAP
04
1C
10
18
1C
3C
3E
76
7F
E3
C3
ENDCHAR
STARTCHAR Acircumflex
ENCODING 194
SWIDTH 765 0
DWIDTH 8 0
BBX 8 11 0 0
BITMAP
18
3C
00
18
1C
3C
3E
76
7F
E3
C3
ENDCHAR
STARTCHAR Atilde
ENCODING 195
SWIDTH 765 0
DWIDTH 8 0
BBX 8 11 0 0
BITMAP
14
3C
00
18
1C
3C
3E
76
7F
E3
C3
ENDCHAR
STARTCHAR Adieresis
ENCODING 196
SWIDTH 765 0
DWIDTH 8 0
BBX 8 11 0 0
BITMAP
36
36
00
18
1C
3C
3E
76
7F
E3
C3
ENDCHAR
STARTCHAR Aring
ENCODING 197
SWIDTH 765 0
DWIDTH 8 0
BBX 8 10 0 0
BITMAP
18
14
18
1C
3C
3E
76
7F
E3
C3
ENDCHAR
STARTCHAR AE
ENCODING 198
SWIDTH 1148 0
DWIDTH 13 0
BBX 12 8 0 0
BITMAP
03F0
07F0
0F00
1FE0
3BE0
7F00
E3F0
C3F0
ENDCHAR
STARTCHAR Ccedilla
ENCODING 199
SWIDTH 679 0
DWIDTH 7 0
BBX 7 10 0 -2
BITMAP
3E
7E
60
C0
C0
60
7E
3E
18
18
ENDCHAR
STARTCHAR Egrave
ENCODING 200
SWIDTH 638 0
DWIDTH 7 0
BBX 7 11 0 0
BITMAP
20
38
08
FE
FE
C0
FC
F8
C0
FE
FE
ENDCHAR
STARTCHAR Eacute
ENCODING 201
SWIDTH 638 0
DWIDTH 7 0
BBX 7 11 0 0
BITMAP
08
38
20
FE
FE
C0
FC
F8
C0
FE
FE
ENDCHAR
STARTCHAR Ecircumflex
ENCODING 202
SWIDTH 638 0
DWIDTH 7 0
BBX 7 11 0 0
BITMAP
10
7C
00
FE
FE
C0
FC
F8
C0
FE
FE
ENDCHAR
STARTCHAR Edieresis
ENCODING 203
SWIDTH 638 0
DWIDTH 7 0
BBX 7 11 0 0
BITMAP
6C
6C
00
FE
FE
C0
FC
F8
C0
FE
FE
ENDCHAR
STARTCHAR Igrave
ENCODING 204
SWIDTH 267 0
DWIDTH 3 0
BBX 4 11 -1 0
BITMAP
40
F0
20
20
60
60
60
60
60
60
20
ENDCHAR
STARTCHAR Iacute
ENCODING 205
SWIDTH 269 0
DWIDTH 3 0
BBX 3 11 0 0
BITMAP
20
E0
80
40
C0
C0
C0
C0
C0
C0
40
ENDCHAR
STARTCHAR Icircumflex
ENCODING 206
SWIDTH 270 0
DWIDTH 3 0
BBX 5 11 -1 0
BITMAP
20
F8
00
20
60
60
60
60
60
60
20
ENDCHAR
STARTCHAR Idieresis
ENCODING 207
SWIDTH 268 0
DWIDTH 3 0
BBX 5 11 -1 0
BITMAP
D8
D8
00
20
20
20
20
20
20
20
20
ENDCHAR
STARTCHAR Eth
ENCODING 208
SWIDTH 775 0
DWIDTH 9 0
BBX 8 8 0 0
BITMAP
7C
7E
63
F3
F3
63
7E
7C
ENDCHAR
STARTCHAR Ntilde
ENCODING 209
SWIDTH 720 0
DWIDTH 8 0
BBX 7 11 0 0
BITMAP
14
3C
00
C2
E2
F2
FA
DA
CE
C6
C6
ENDCHAR
STARTCHAR Ograve
ENCODING 210
SWIDTH 775 0
DWIDTH 9 0
BBX 8 11 0 0
BITMAP
10
3C
08
3C
7E
63
C3
C3
63
7E
3C
ENDCHAR
STARTCHAR Oacute
ENCODING 211
SWIDTH 775 0
DWIDTH 9 0
BBX 8 11 0 0
BITMAP
04
1C
10
3C
7E
63
C3
C3
63
7E
3C
ENDCHAR
STARTCHAR Ocircumflex
ENCODING 212
SWIDTH 775 0
DWIDTH 9 0
BBX 8 11 0 0
BITMAP
08
3C
00
3C
7E
63
C3
C3
63
7E
3C
ENDCHAR
STARTCHAR Otilde
ENCODING 213
SWIDTH 775 0
DWIDTH 9 0
BBX 8 11 0 0
BITMAP
1C
3E
00
3C
7E
63
C3
C3
63
7E
3C
ENDCHAR
STARTCHAR Odieresis
ENCODING 214
SWIDTH 775 0
DWIDTH 9 0
BBX 8 11 0 0
BITMAP
36
36
00
3C
7E
63
C3
C3
63
7E
3C
ENDCHAR
STARTCHAR multiply
ENCODING 215
SWIDTH 521 0
DWIDTH 6 0
BBX 5 5 0 0
BITMAP
F8
78
78
F8
48
ENDCHAR
STARTCHAR Oslash
ENCODING 216
SWIDTH 775 0
DWIDTH 9 0
BBX 8 10 0 -1
BITMAP
04
3E
7E
6F
CF
DB
7B
7E
3C
20
ENDCHAR
STARTCHAR Ugrave
ENCODING 217
SWIDTH 726 0
DWIDTH 8 0
BBX 8 11 0 0
BITMAP
20
38
08
C3
C3
C3
C3
C3
66
7E
3C
ENDCHAR
STARTCHAR Uacute
ENCODING 218
SWIDTH 726 0
DWIDTH 8 0
BBX 8 11 0 0
BITMAP
04
1C
10
C3
C3
C3
C3
C3
66
7E
3C
ENDCHAR
STARTCHAR Ucircumflex
ENCODING 219
SWIDTH 726 0
DWIDTH 8 0
BBX 8 11 0 0
BITMAP
18
3C
00
C3
C3
C3
C3
C3
66
7E
3C
ENDCHAR
STARTCHAR Udieresis
ENCODING 220
SWIDTH 726 0
DWIDTH 8 0
BBX 8 11 0 0
BITMAP
24
3C
00
C3
C3
C3
C3
C3
66
7E
3C
ENDCHAR
STARTCHAR Yacute
ENCODING 221
SWIDTH 686 0
DWIDTH 8 0
BBX 7 11 0 0
BITMAP
08
3C
10
C6
E6
6C
3C
38
18
18
18
ENDCHAR
STARTCHAR Thorn
ENCODING 222
SWIDTH 634 0
DWIDTH 7 0
BBX 7 8 0 0
BITMAP
C0
F8
FC
C6
C6
FC
F8
C0
ENDCHAR
STARTCHAR germandbls
ENCODING 223
SWIDTH 633 0
DWIDTH 7 0
BBX 7 8 0 0
BITMAP
7C
EC
D8
D8
DC
C6
DE
DC
ENDCHAR
STARTCHAR agrave
ENCODING 224
SWIDTH 596 0
DWIDTH 7 0
BBX 6 9 0 0
BITMAP
20
38
08
3C
7C
CC
CC
7C
3C
ENDCHAR
STARTCHAR aacute
ENCODING 225
SWIDTH 596 0
DWIDTH 7 0
BBX 6 9 0 0
BITMAP
08
38
20
3C
7C
CC
CC
7C
3C
ENDCHAR
STARTCHAR acircumflex
ENCODING 226
SWIDTH 596 0
DWIDTH 7 0
BBX 6 9 0 0
BITMAP
10
7C
28
3C
7C
CC
CC
7C
3C
ENDCHAR
STARTCHAR atilde
ENCODING 227
SWIDTH 596 0
DWIDTH 7 0
BBX 6 9 0 0
BITMAP
28
7C
00
3C
7C
CC
CC
7C
3C
ENDCHAR
STARTCHAR adieresis
ENCODING 228
SWIDTH 596 0
DWIDTH 7 0
BBX 6 9 0 0
BITMAP
24
6C
00
3C
7C
CC
CC
7C
3C
ENDCHAR
STARTCHAR aring
ENCODING 229
SWIDTH 596 0
DWIDTH 7 0
BBX 6 8 0 0
BITMAP
38
18
3C
7C
CC
CC
7C
3C
ENDCHAR
STARTCHAR ae
ENCODING 230
SWIDTH 910 0
DWIDTH 10 0
BBX 10 6 0 0
BITMAP
7380
FFC0
4CC0
7F80
CF80
7780
ENDCHAR
STARTCHAR ccedilla
ENCODING 231
SWIDTH 524 0
DWIDTH 6 0
BBX 5 8 0 -2
BITMAP
38
78
C8
C0
78
38
30
30
ENDCHAR
STARTCHAR egrave
ENCODING 232
SWIDTH 573 0
DWIDTH 6 0
BBX 6 9 0 0
BITMAP
20
38
18
38
7C
CC
FC
7C
7C
ENDCHAR
STARTCHAR eacute
ENCODING 233
SWIDTH 573 0
DWIDTH 6 0
BBX 6 9 0 0
BITMAP
08
38
20
38
7C
CC
FC
7C
7C
ENDCHAR
STARTCHAR ecircumflex
ENCODING 234
SWIDTH 573 0
DWIDTH 6 0
BBX 6 9 0 0
BITMAP
10
78
48
38
7C
CC
FC
7C
7C
ENDCHAR
STARTCHAR edieresis
ENCODING 235
SWIDTH 573 0
DWIDTH 6 0
BBX 6 9 0 0
BITMAP
48
6C
00
38
7C
CC
FC
7C
7C
ENDCHAR
STARTCHAR igrave
ENCODING 236
SWIDTH 255 0
DWIDTH 3 0
BBX 4 9 -1 0
BITMAP
40
F0
20
20
60
60
60
60
60
ENDCHAR
STARTCHAR iacute
ENCODING 237
SWIDTH 255 0
DWIDTH 3 0
BBX 3 9 0 0
BITMAP
20
E0
C0
40
C0
C0
C0
C0
C0
ENDCHAR
STARTCHAR icircumflex
ENCODING 238
SWIDTH 255 0
DWIDTH 3 0
BBX 5 9 -1 0
BITMAP
20
F8
50
20
60
60
60
60
60
ENDCHAR
STARTCHAR idieresis
ENCODING 239
SWIDTH 255 0
DWIDTH 3 0
BBX 5 9 -1 0
BITMAP
90
D8
00
20
60
60
60
60
60
ENDCHAR
STARTCHAR eth
ENCODING 240
SWIDTH 585 0
DWIDTH 6 0
BBX 6 9 0 0
BITMAP
10
30
38
3C
7C
CC
CC
7C
78
ENDCHAR
STARTCHAR ntilde
ENCODING 241
SWIDTH 606 0
DWIDTH 7 0
BBX 6 9 0 0
BITMAP
28
7C
00
58
FC
EC
CC
CC
CC
ENDCHAR
STARTCHAR ograve
ENCODING 242
SWIDTH 600 0
DWIDTH 7 0
BBX 6 9 0 0
BITMAP
20
38
18
38
7C
CC
CC
7C
78
ENDCHAR
STARTCHAR oacute
ENCODING 243
SWIDTH 600 0
DWIDTH 7 0
BBX 6 9 0 0
BITMAP
08
38
20
38
7C
CC
CC
7C
78
ENDCHAR
STARTCHAR ocircumflex
ENCODING 244
SWIDTH 600 0
DWIDTH 7 0
BBX 6 9 0 0
BITMAP
10
7C
48
38
7C
CC
CC
7C
78
ENDCHAR
STARTCHAR otilde
ENCODING 245
SWIDTH 600 0
DWIDTH 7 0
BBX 6 9 0 0
BITMAP
28
7C
00
38
7C
CC
CC
7C
78
ENDCHAR
STARTCHAR odieresis
ENCODING 246
SWIDTH 600 0
DWIDTH 7 0
BBX 6 9 0 0
BITMAP
48
6C
00
38
7C
CC
CC
7C
78
ENDCHAR
STARTCHAR divide
ENCODING 247
SWIDTH 503 0
DWIDTH 6 0
BBX 5 6 0 0
BITMAP
30
30
F8
F8
30
30
ENDCHAR
STARTCHAR oslash
ENCODING 248
SWIDTH 600 0
DWIDTH 7 0
BBX 6 10 0 -2
BITMAP
08
0C
3C
7C
CC
CC
7C
78
60
40
ENDCHAR
STARTCHAR ugrave
ENCODING 249
SWIDTH 606 0
DWIDTH 7 0
BBX 6 9 0 0
BITMAP
20
38
18
4C
CC
CC
CC
7C
3C
ENDCHAR
STARTCHAR uacute
ENCODING 250
SWIDTH 606 0
DWIDTH 7 0
BBX 6 9 0 0
BITMAP
08
38
30
4C
CC
CC
CC
7C
3C
ENDCHAR
STARTCHAR ucircumflex
ENCODING 251
SWIDTH 606 0
DWIDTH 7 0
BBX 6 9 0 0
BITMAP
10
7C
28
4C
CC
CC
CC
7C
3C
ENDCHAR
STARTCHAR udieresis
ENCODING 252
SWIDTH 606 0
DWIDTH 7 0
BBX 6 9 0 0
BITMAP
48
6C
00
4C
CC
CC
CC
7C
3C
ENDCHAR
STARTCHAR yacute
ENCODING 253
SWIDTH 604 0
DWIDTH 7 0
BBX 6 12 0 -3
BITMAP
08
38
30
C4
EC
6C
38
38
38
30
30
20
ENDCHAR
STARTCHAR thorn
ENCODING 254
SWIDTH 580 0
DWIDTH 6 0
BBX 6 11 0 -2
BITMAP
40
C0
C0
D8
FC
CC
CC
FC
F8
C0
C0
ENDCHAR
STARTCHAR ydieresis
ENCODING 255
SWIDTH 604 0
DWIDTH 7 0
BBX 6 12 0 -3
BITMAP
48
6C
00
C4
EC
6C
38
38
38
30
30
20
ENDCHAR
STARTCHAR dotlessi
ENCODING 305
SWIDTH 255 0
DWIDTH 3 0
BBX 2 6 0 0
BITMAP
40
C0
C0
C0
C0
C0
ENDCHAR
STARTCHAR Lslash
ENCODING 321
SWIDTH 687 0
DWIDTH 8 0
BBX 7 8 0 0
BITMAP
20
20
20
78
E0
20
3E
3E
ENDCHAR
STARTCHAR lslash
ENCODING 322
SWIDTH 468 0
DWIDTH 5 0
BBX 5 9 0 0
BITMAP
20
60
60
60
78
E0
60
30
30
ENDCHAR
STARTCHAR OE
ENCODING 338
SWIDTH 1092 0
DWIDTH 12 0
BBX 12 8 0 0
BITMAP
3FF0
7FF0
6600
C7E0
C7C0
6600
7FF0
3FF0
ENDCHAR
STARTCHAR oe
ENCODING 339
SWIDTH 944 0
DWIDTH 10 0
BBX 10 6 0 0
BITMAP
3B80
7FC0
CCC0
CFC0
7FC0
7BC0
ENDCHAR
STARTCHAR Scaron
ENCODING 352
SWIDTH 583 0
DWIDTH 6 0
BBX 6 11 0 0
BITMAP
48
78
00
78
7C
C0
78
3C
4C
FC
78
ENDCHAR
STARTCHAR scaron
ENCODING 353
SWIDTH 489 0
DWIDTH 5 0
BBX 5 9 0 0
BITMAP
40
F8
20
78
F8
70
78
D8
78
ENDCHAR
STARTCHAR Ydieresis
ENCODING 376
SWIDTH 686 0
DWIDTH 8 0
BBX 7 11 0 0
BITMAP
6C
6C
00
C6
E6
6C
3C
38
18
18
18
ENDCHAR
STARTCHAR Zcaron
ENCODING 381
SWIDTH 643 0
DWIDTH 7 0
BBX 7 11 0 0
BITMAP
28
7C
00
FE
FC
1C
18
30
70
FE
FE
ENDCHAR
STARTCHAR zcaron
ENCODING 382
SWIDTH 586 0
DWIDTH 6 0
BBX 6 9 0 0
BITMAP
40
7C
10
7C
7C
18
70
FC
FC
ENDCHAR
STARTCHAR florin
ENCODING 402
SWIDTH 529 0
DWIDTH 6 0
BBX 6 10 0 -2
BITMAP
1C
38
30
7C
30
30
30
30
60
E0
ENDCHAR
STARTCHAR circumflex
ENCODING 710
SWIDTH 603 0
DWIDTH 7 0
BBX 5 3 1 6
BITMAP
20
F8
90
ENDCHAR
STARTCHAR caron
ENCODING 711
SWIDTH 600 0
DWIDTH 7 0
BBX 5 3 1 6
BITMAP
80
F8
20
ENDCHAR
STARTCHAR dotaccent
ENCODING 729
SWIDTH 285 0
DWIDTH 3 0
BBX 2 2 1 8
BITMAP
80
C0
ENDCHAR
STARTCHAR ring
ENCODING 730
SWIDTH 378 0
DWIDTH 4 0
BBX 3 3 1 7
BITMAP
C0
A0
C0
ENDCHAR
STARTCHAR ogonek
ENCODING 731
SWIDTH 570 0
DWIDTH 6 0
BBX 2 2 2 -2
BITMAP
C0
C0
ENDCHAR
STARTCHAR tilde
ENCODING 732
SWIDTH 584 0
DWIDTH 6 0
BBX 4 2 1 7
BITMAP
50
F0
ENDCHAR
STARTCHAR endash
ENCODING 8211
SWIDTH 561 0
DWIDTH 6 0
BBX 6 2 0 2
BITMAP
FC
FC
ENDCHAR
STARTCHAR emdash
ENCODING 8212
SWIDTH 693 0
DWIDTH 8 0
BBX 7 2 0 2
BITMAP
FE
FE
ENDCHAR
STARTCHAR quoteleft
ENCODING 8216
SWIDTH 237 0
DWIDTH 3 0
BBX 2 4 0 4
BITMAP
40
C0
C0
C0
ENDCHAR
STARTCHAR quoteright
ENCODING 8217
SWIDTH 237 0
DWIDTH 3 0
BBX 2 4 0 4
BITMAP
C0
C0
40
80
ENDCHAR
STARTCHAR quotesinglbase
ENCODING 8218
SWIDTH 237 0
DWIDTH 3 0
BBX 2 4 0 -2
BITMAP
C0
C0
40
80
ENDCHAR
STARTCHAR quotedblleft
ENCODING 8220
SWIDTH 482 0
DWIDTH 5 0
BBX 5 4 0 4
BITMAP
48
D0
D8
D8
ENDCHAR
STARTCHAR quotedblright
ENCODING 8221
SWIDTH 482 0
DWIDTH 5 0
BBX 5 4 0 4
BITMAP
D8
D8
48
90
ENDCHAR
STARTCHAR quotedblbase
ENCODING 8222
SWIDTH 482 0
DWIDTH 5 0
BBX 5 4 0 -2
BITMAP
D8
D8
48
90
ENDCHAR
STARTCHAR dagger
ENCODING 8224
SWIDTH 527 0
DWIDTH 6 0
BBX 6 10 0 -2
BITMAP
30
30
F8
FC
30
30
30
30
30
30
ENDCHAR
STARTCHAR daggerdbl
ENCODING 8225
SWIDTH 527 0
DWIDTH 6 0
BBX 6 10 0 -2
BITMAP
30
30
F8
FC
30
30
FC
78
30
30
ENDCHAR
STARTCHAR bullet
ENCODING 8226
SWIDTH 342 0
DWIDTH 4 0
BBX 3 3 0 2
BITMAP
60
E0
60
ENDCHAR
STARTCHAR ellipsis
ENCODING 8230
SWIDTH 911 0
DWIDTH 10 0
BBX 10 2 0 0
BITMAP
CCC0
CCC0
ENDCHAR
STARTCHAR perthousand
ENCODING 8240
SWIDTH 1223 0
DWIDTH 13 0
BBX 13 9 0 0
BITMAP
0200
7200
D400
D400
7800
0B38
14E8
15E8
2338
ENDCHAR
STARTCHAR guilsinglleft
ENCODING 8249
SWIDTH 383 0
DWIDTH 4 0
BBX 4 6 0 0
BITMAP
30
70
E0
E0
70
30
ENDCHAR
STARTCHAR guilsinglright
ENCODING 8250
SWIDTH 383 0
DWIDTH 4 0
BBX 4 6 0 0
BITMAP
40
E0
70
70
E0
C0
ENDCHAR
STARTCHAR fraction
ENCODING 8260
SWIDTH 433 0
DWIDTH 5 0
BBX 6 9 0 0
BITMAP
04
08
08
10
10
20
20
40
C0
ENDCHAR
STARTCHAR Euro
ENCODING 8364
SWIDTH 612 0
DWIDTH 7 0
BBX 6 8 0 0
BITMAP
3C
70
FC
60
FC
60
3C
1C
ENDCHAR
STARTCHAR trademark
ENCODING 8482
SWIDTH 840 0
DWIDTH 9 0
BBX 9 4 0 3
BITMAP
FD80
6F80
6F80
6D80
ENDCHAR
STARTCHAR minus
ENCODING 8722
SWIDTH 581 0
DWIDTH 6 0
BBX 6 2 0 2
BITMAP
FC
FC
ENDCHAR
STARTCHAR f_f
ENCODING 64256
SWIDTH 803 0
DWIDTH 9 0
BBX 9 9 0 0
BITMAP
1100
3F00
6600
FF80
FF80
6600
6600
6600
6600
ENDCHAR
STARTCHAR fi
ENCODING 64257
SWIDTH 709 0
DWIDTH 8 0
BBX 7 9 0 0
BITMAP
12
3E
60
FA
FE
66
66
66
66
ENDCHAR
STARTCHAR fl
ENCODING 64258
SWIDTH 774 0
DWIDTH 9 0
BBX 8 9 0 0
BITMAP
12
3E
66
FE
FE
66
66
67
63
ENDCHAR
STARTCHAR f_f_i
ENCODING 64259
SWIDTH 1059 0
DWIDTH 12 0
BBX 11 9 0 0
BITMAP
1100
3F60
6600
FFE0
FFE0
6660
6660
6660
6660
ENDCHAR
STARTCHAR .notdef
ENCODING -1
SWIDTH 500 0
DWIDTH 6 0
BBX 1 1 0 0
BITMAP
00
ENDCHAR
STARTCHAR .null
ENCODING -1
SWIDTH 0 0
DWIDTH 0 0
BBX 1 1 0 0
BITMAP
00
ENDCHAR
STARTCHAR nonmarkingreturn
ENCODING -1
SWIDTH 333 0
DWIDTH 4 0
BBX 1 1 0 0
BITMAP
00
ENDCHAR
STARTCHAR f_t
ENCODING -1
SWIDTH 814 0
DWIDTH 9 0
BBX 9 9 0 0
BITMAP
1000
3E00
6600
FF80
FF80
6600
6600
6700
6300
ENDCHAR
STARTCHAR t_t
ENCODING -1
SWIDTH 794 0
DWIDTH 9 0
BBX 9 8 0 0
BITMAP
6600
6600
FF00
FF80
6600
6600
7700
3300
ENDCHAR
STARTCHAR l_l
ENCODING -1
SWIDTH 626 0
DWIDTH 7 0
BBX 7 9 0 0
BITMAP
48
D8
D8
D8
D8
D8
D8
7E
6E
ENDCHAR
STARTCHAR j_j
ENCODING -1
SWIDTH 521 0
DWIDTH 6 0
BBX 6 11 -1 -3
BITMAP
6C
00
24
6C
6C
6C
6C
6C
6C
FC
88
ENDCHAR
ENDFONT
